<?xml version="1.0" standalone="no"?><svg xmlns="http://www.w3.org/2000/svg" viewBox="0 0 1440 320"><path fill="#a2d9ff" fill-opacity="0.8" d="M0,256L18.5,240C36.9,224,74,192,111,170.7C147.7,149,185,139,222,144C258.5,149,295,171,332,186.7C369.2,203,406,213,443,197.3C480,181,517,139,554,106.7C590.8,75,628,53,665,85.3C701.5,117,738,203,775,234.7C812.3,267,849,245,886,202.7C923.1,160,960,96,997,58.7C1033.8,21,1071,11,1108,32C1144.6,53,1182,107,1218,133.3C1255.4,160,1292,160,1329,176C1366.2,192,1403,224,1422,240L1440,256L1440,0L1421.5,0C1403.1,0,1366,0,1329,0C1292.3,0,1255,0,1218,0C1181.5,0,1145,0,1108,0C1070.8,0,1034,0,997,0C960,0,923,0,886,0C849.2,0,812,0,775,0C738.5,0,702,0,665,0C627.7,0,591,0,554,0C516.9,0,480,0,443,0C406.2,0,369,0,332,0C295.4,0,258,0,222,0C184.6,0,148,0,111,0C73.8,0,37,0,18,0L0,0Z"></path></svg>